<?xml version="1.0" encoding="UTF-8" standalone="no"?>
<!-- Created with Inkscape (http://www.inkscape.org/) -->

<svg
   width="297mm"
   height="210mm"
   viewBox="0 0 297 210"
   version="1.1"
   id="svg600"
   inkscape:version="1.2.2 (732a01da63, 2022-12-09)"
   sodipodi:docname="IconLemon.svg"
   xmlns:inkscape="http://www.inkscape.org/namespaces/inkscape"
   xmlns:sodipodi="http://sodipodi.sourceforge.net/DTD/sodipodi-0.dtd"
   xmlns:xlink="http://www.w3.org/1999/xlink"
   xmlns="http://www.w3.org/2000/svg"
   xmlns:svg="http://www.w3.org/2000/svg">
  <sodipodi:namedview
     id="namedview602"
     pagecolor="#ffffff"
     bordercolor="#000000"
     borderopacity="0.25"
     inkscape:showpageshadow="2"
     inkscape:pageopacity="0.0"
     inkscape:pagecheckerboard="0"
     inkscape:deskcolor="#d1d1d1"
     inkscape:document-units="mm"
     showgrid="false"
     inkscape:zoom="1.0129245"
     inkscape:cx="425.99423"
     inkscape:cy="350.47034"
     inkscape:window-width="1920"
     inkscape:window-height="991"
     inkscape:window-x="-9"
     inkscape:window-y="-9"
     inkscape:window-maximized="1"
     inkscape:current-layer="layer1" />
  <defs
     id="defs597">
    <inkscape:path-effect
       effect="powerstroke"
       id="path-effect1005"
       is_visible="true"
       lpeversion="1"
       offset_points="2.3045376,3.9181104"
       not_jump="true"
       sort_points="true"
       interpolator_type="CentripetalCatmullRom"
       interpolator_beta="0.75"
       start_linecap_type="round"
       linejoin_type="spiro"
       miter_limit="4"
       scale_width="1"
       end_linecap_type="round" />
    <inkscape:path-effect
       effect="simplify"
       id="path-effect1003"
       is_visible="true"
       lpeversion="1"
       steps="1"
       threshold="0.0053615845"
       smooth_angles="0"
       helper_size="0"
       simplify_individual_paths="false"
       simplify_just_coalesce="false"
       step="1" />
    <radialGradient
       inkscape:collect="always"
       xlink:href="#linearGradient1039"
       id="radialGradient1043"
       cx="22.057415"
       cy="159.36787"
       fx="22.057415"
       fy="159.36787"
       r="34.976788"
       gradientTransform="matrix(1.483478,0,0,1.1953468,36.291719,-41.01769)"
       gradientUnits="userSpaceOnUse" />
    <linearGradient
       inkscape:collect="always"
       id="linearGradient1039">
      <stop
         style="stop-color:#1a1a1a;stop-opacity:0.95255476;"
         offset="0.88896829"
         id="stop1035" />
      <stop
         style="stop-color:#1a1a1a;stop-opacity:0;"
         offset="1"
         id="stop1037" />
    </linearGradient>
    <radialGradient
       inkscape:collect="always"
       xlink:href="#linearGradient1117"
       id="radialGradient1119"
       cx="21.076811"
       cy="154.19279"
       fx="21.076811"
       fy="154.19279"
       r="27.684269"
       gradientTransform="matrix(1.483478,0,0,1.0953345,-9.8289821,-37.171993)"
       gradientUnits="userSpaceOnUse" />
    <linearGradient
       inkscape:collect="always"
       id="linearGradient1117">
      <stop
         style="stop-color:#fff4d2;stop-opacity:1;"
         offset="0.13017751"
         id="stop1113" />
      <stop
         style="stop-color:#d4aa00;stop-opacity:0;"
         offset="1"
         id="stop1115" />
    </linearGradient>
  </defs>
  <g
     inkscape:label="Camada 1"
     inkscape:groupmode="layer"
     id="layer1">
    <g
       id="g273"
       transform="matrix(1.5436405,9.0244104e-4,-9.5246679e-4,1.4625648,-13.405682,-96.608714)">
      <path
         style="fill:#d4aa00;fill-rule:evenodd;stroke-width:0.401895"
         id="path234"
         sodipodi:type="arc"
         sodipodi:cx="32.29319"
         sodipodi:cy="149.07487"
         sodipodi:rx="51.887295"
         sodipodi:ry="41.809391"
         sodipodi:start="4.8307504"
         sodipodi:end="4.7983719"
         sodipodi:open="true"
         sodipodi:arc-type="arc"
         d="m 38.420314,107.558 a 51.887295,41.809391 0 0 1 45.445048,46.11773 51.887295,41.809391 0 0 1 -56.864391,36.9905 51.887295,41.809391 0 0 1 -46.365629,-45.51888 51.887295,41.809391 0 0 1 56.113774,-37.72741"
         transform="matrix(0.87420379,-0.48555919,0.48308657,0.87557259,0,0)" />
      <path
         style="fill:url(#radialGradient1043);fill-opacity:1;fill-rule:evenodd;stroke-width:0.401895"
         id="path396"
         sodipodi:type="arc"
         sodipodi:cx="69.013412"
         sodipodi:cy="149.48219"
         sodipodi:rx="51.887295"
         sodipodi:ry="41.809391"
         sodipodi:start="4.8307504"
         sodipodi:end="4.7983719"
         sodipodi:open="true"
         sodipodi:arc-type="arc"
         d="M 75.140537,107.96532 A 51.887295,41.809391 0 0 1 120.58558,154.08304 51.887295,41.809391 0 0 1 63.721194,191.07355 51.887295,41.809391 0 0 1 17.355565,145.55467 51.887295,41.809391 0 0 1 73.469338,107.82726"
         transform="matrix(0.96580808,-0.25925808,0.25652748,0.96653694,0,0)" />
      <path
         style="fill:#d4aa00;fill-rule:evenodd;stroke-width:0.401895"
         id="path1109"
         sodipodi:type="arc"
         sodipodi:cx="32.29319"
         sodipodi:cy="149.07487"
         sodipodi:rx="51.887295"
         sodipodi:ry="41.809391"
         sodipodi:start="4.8307504"
         sodipodi:end="4.7983719"
         sodipodi:open="true"
         sodipodi:arc-type="arc"
         d="m 38.420314,107.558 a 51.887295,41.809391 0 0 1 45.445048,46.11773 51.887295,41.809391 0 0 1 -56.864391,36.9905 51.887295,41.809391 0 0 1 -46.365629,-45.51888 51.887295,41.809391 0 0 1 56.113774,-37.72741"
         transform="matrix(0.87420379,-0.48555919,0.48308657,0.87557259,0,0)" />
      <path
         style="fill:url(#radialGradient1119);fill-opacity:1;fill-rule:evenodd;stroke-width:0.304505"
         id="path1111"
         sodipodi:type="arc"
         sodipodi:cx="21.438002"
         sodipodi:cy="131.72069"
         sodipodi:rx="41.069004"
         sodipodi:ry="30.323534"
         sodipodi:start="4.8307504"
         sodipodi:end="4.7983719"
         sodipodi:open="true"
         sodipodi:arc-type="arc"
         d="M 26.287645,101.60931 A 41.069004,30.323534 0 0 1 62.257584,135.0576 41.069004,30.323534 0 0 1 17.249189,161.88608 41.069004,30.323534 0 0 1 -19.449394,128.87213 41.069004,30.323534 0 0 1 24.964885,101.50918"
         transform="matrix(0.90479418,-0.42584914,0.54564382,0.8380172,0,0)" />
      <path
         style="fill:#d4aa00;fill-rule:evenodd;stroke-width:0.531271"
         id="path1173"
         sodipodi:type="arc"
         sodipodi:cx="-120.19943"
         sodipodi:cy="123.57053"
         sodipodi:rx="8.4955082"
         sodipodi:ry="9.8620844"
         sodipodi:start="4.8307504"
         sodipodi:end="4.7983719"
         sodipodi:open="true"
         sodipodi:arc-type="arc"
         d="m -119.19624,113.77745 a 8.4955082,9.8620844 0 0 1 7.44072,10.87834 8.4955082,9.8620844 0 0 1 -9.31041,8.7254 8.4955082,9.8620844 0 0 1 -7.59144,-10.73709 8.4955082,9.8620844 0 0 1 9.18751,-8.89922"
         transform="matrix(-0.1390946,-0.9902791,0.95896859,-0.28351235,0,0)" />
      <text
         xml:space="preserve"
         style="font-weight:bold;font-size:29.072px;font-family:'Bookman Old Style';-inkscape-font-specification:'Bookman Old Style Bold';fill:#d4aa00;fill-rule:evenodd;stroke-width:0.361225"
         x="45.778061"
         y="159.29895"
         id="text1229"
         transform="scale(0.80822876,1.2372735)"><tspan
           sodipodi:role="line"
           id="tspan1227"
           style="font-size:29.072px;fill:#0001d4;fill-opacity:1;stroke-width:0.361225"
           x="45.778061"
           y="159.29895">Lemon<tspan
   style="font-style:italic;font-variant:normal;font-weight:bold;font-stretch:normal;font-family:'Bookman Old Style';-inkscape-font-specification:'Bookman Old Style Light Italic';fill:#333333;stroke-width:0.361225"
   id="tspan1383">Soft</tspan></tspan></text>
      <path
         style="fill:#d4aa00;fill-rule:evenodd;stroke-width:0.596949"
         id="path463"
         sodipodi:type="arc"
         sodipodi:cx="-150.77808"
         sodipodi:cy="-25.916233"
         sodipodi:rx="7.7811637"
         sodipodi:ry="13.594251"
         sodipodi:start="4.8307504"
         sodipodi:end="4.7983719"
         sodipodi:open="true"
         sodipodi:arc-type="arc"
         d="m -149.85924,-39.415371 a 7.7811637,13.594251 0 0 1 6.81507,14.995097 7.7811637,13.594251 0 0 1 -8.52754,12.027397 7.7811637,13.594251 0 0 1 -6.95312,-14.800384 7.7811637,13.594251 0 0 1 8.41498,-12.267002"
         transform="matrix(-0.5492333,-0.83566906,0.74659061,-0.66528374,0,0)" />
    </g>
    <path
       style="fill:#333333;stroke-width:0.99401575;fill-rule:evenodd;stroke:none"
       d="m 777.94544,67.132347 5.40896,-3.02554"
       id="path1000" />
  </g>
</svg>
